<svg xmlns="http://www.w3.org/2000/svg" width="12" height="8" fill="#cdcdcd" xmlns:v="https://vecta.io/nano"><path d="M1.364 4.364A1.37 1.37 0 0 0 0 5.727a1.37 1.37 0 0 0 1.364 1.364 1.37 1.37 0 0 0 1.364-1.364 1.37 1.37 0 0 0-1.364-1.364zm9.272 0a1.37 1.37 0 0 0-1.364 1.364 1.37 1.37 0 0 0 1.364 1.364A1.37 1.37 0 0 0 12 5.727a1.37 1.37 0 0 0-1.364-1.364zm-6 1.363A1.37 1.37 0 0 1 6 4.364a1.37 1.37 0 0 1 1.364 1.364A1.37 1.37 0 0 1 6 7.091a1.37 1.37 0 0 1-1.364-1.364zM1.364 0A1.37 1.37 0 0 0 0 1.364a1.37 1.37 0 0 0 1.364 1.364 1.37 1.37 0 0 0 1.364-1.364A1.37 1.37 0 0 0 1.364 0zm9.272 0a1.37 1.37 0 0 0-1.364 1.364 1.37 1.37 0 0 0 1.364 1.364A1.37 1.37 0 0 0 12 1.364 1.37 1.37 0 0 0 10.636 0zm-6 1.364A1.37 1.37 0 0 1 6 0a1.37 1.37 0 0 1 1.364 1.364A1.37 1.37 0 0 1 6 2.727a1.37 1.37 0 0 1-1.364-1.364z"/></svg>